<?xml version="1.0" standalone="no"?>
<!DOCTYPE svg PUBLIC "-//W3C//DTD SVG 20010904//EN" "http://www.w3.org/TR/2001/REC-SVG-20010904/DTD/svg10.dtd">
<!-- Created using Karbon, part of Calligra: http://www.calligra.org/karbon -->
<svg xmlns="http://www.w3.org/2000/svg" xmlns:xlink="http://www.w3.org/1999/xlink" width="165.478pt" height="179.32pt">
<defs/>
<g id="layer0">
  <path id="path3077" transform="translate(116.294, 213.434)" fill="none" stroke="#000000" stroke-width="1.79999995000" stroke-linecap="butt" stroke-linejoin="miter" stroke-miterlimit="2.00000000000" d="M0 0L60.6 0"/>
  <path id="path3079" transform="translate(102.614, 88.0936)" fill="#009000" d="M30.12 0L29.82 1.38L28.26 4.9799L24.48 11.3399L13.68 27.9604L7.5 37.0804L2.52 45.9604L0 52.5004L2.52 56.4004L4.92 51.4804L13.86 34.3204L22.92 19.2004L26.7 11.82L29.82 5.6999L30.66 3.5999L30.84 1.56L30.48 2.84217e-14Z"/>
  <path id="path3081" transform="translate(101.414, 56.4136)" fill="#009000" d="M45.78 0L48.18 2.3999L49.5 4.98L50.04 7.86L49.86 11.4599L49.38 13.68L48 17.4599L36.84 39.5999L30 52.4404L24.3 64.4404L20.04 73.3804L12.12 90.0004L9.24 96.6604L5.1 105.96L3.72 110.22L2.4 114.84L2.04 119.82L0 103.2L3.06 100.98L4.8 96.8404L11.64 79.2004L19.86 62.4004L29.64 43.0199L37.32 28.62L44.88 15.06L46.8 10.62L48.3 6.48L48.18 4.4399L47.1 1.86L45.9 0.6599Z"/>
  <path id="path3083" transform="translate(128.714, 118.634)" fill="#009000" d="M0 52.74L1.62 42.36L3.36 32.94L6.6 23.34L9.54 15.96L12.48 6L13.5 0L13.32 7.2L11.76 17.16L8.34 30.54L6.78 38.04L6.12 43.38L5.88 46.44L0.6 51.6Z"/>
  <path id="path3085" transform="translate(119.174, 52.4536)" fill="#009000" d="M25.08 0L20.28 31.8599L17.88 41.3399L14.76 54.5404L9.12 77.1604L6.36 90.0004L3.48 105.54L0 116.58L4.26 124.62L6.24 122.04L9.48 96.8404L16.5 62.7604L21.48 37.38L25.26 9.2399L25.92 0.1799Z"/>
  <path id="path3087" transform="translate(58.8735, 70.1536)" fill="#009000" d="M0.36 0L4.44 5.6999L22.26 32.4004L38.58 58.3204L50.0405 77.8804L59.4605 95.3404L62.2205 101.7L64.9205 106.5L60.0005 111.54L58.7405 105.72L54.0005 97.0804L48.6605 88.1404L40.44 74.4004L28.8 55.9204L20.04 42.0004L15.78 34.6204L12.36 28.5L6.66 16.32L3.42 8.94L1.2 3.4199L0 4.26326e-14Z"/>
  <path id="path3089" transform="translate(90.4935, 76.2736)" fill="#009000" d="M10.9205 105L6.36 73.7404L5.04 61.6204L1.26 32.1004L0.24 17.5799L0 0L2.94 19.26L5.4 40.0204L9.18 65.4004L11.2205 83.8804L15.7205 117.84L12.1205 111.48Z"/>
  <path id="path3091" transform="translate(101.894, 72.7935)" fill="#009000" d="M0 88.4405L0.72 75.7205L3.84 50.1005L4.86 38.5805L6.6 18.6601L6.72 0L7.98 0L7.56 23.1601L6.6 34.1405L3.72 62.7005L1.56 87.8405"/>
  <path id="path3093" transform="translate(28.0335, 127.694)" fill="#000000" stroke="#000000" stroke-width="0.89999998000" stroke-linecap="butt" stroke-linejoin="miter" stroke-miterlimit="2.00000000000" d="M77.1005 74.58L151.14 0L153.12 2.58L131.16 24.3L133.68 27.48L111.42 49.74L114.84 53.16L76.8605 91.74L38.52 53.16L42 50.04L18.84 27.48L22.26 24.3L0 2.28L2.28 0.6Z"/>
  <path id="path3095" transform="translate(30.0135, 213.254)" fill="none" stroke="#000000" stroke-width="1.79999995000" stroke-linecap="butt" stroke-linejoin="miter" stroke-miterlimit="2.00000000000" d="M0 0L62.88 0"/>
  <path id="path3097" transform="translate(54.4335, 91.7535)" fill="#009000" d="M2.04 33.3005L4.44 35.7005L7.02 39.3005L11.82 46.6205L16.98 55.0805L24.3 68.2805L29.46 78.1805L31.86 82.6805L32.7 85.3805L45.9005 98.1005L44.88 93.9605L40.44 80.4005L33.06 61.2005L26.04 43.0205L22.44 34.3205L19.5 27.7805L16.62 22.5005L13.32 16.8005L11.28 13.5605L9.6 10.6205L7.02 7.74L2.7 3.3L0 0L6.48 6L10.44 9.9605L15.42 16.5005L25.2 32.4005L32.58 47.7005L41.82 70.5005L46.0805 83.7005L51.6005 102.36L50.8805 102.9L45.7805 98.1005L19.08 72.3605L16.8 65.3405L14.52 60.1805L9.42 48.5405L6 40.6205L2.22 33.4205Z"/>
  <path id="path3099" transform="translate(98.7135, 26.5336)" fill="#009000" d="M8.4005 45.5399L7.5605 41.2799L7.8605 40.44L8.1605 39.7199L8.0405 38.0399L7.7405 37.44L7.2005 37.1999L6.6005 35.88L7.0205 34.44L6.6005 33.5999L6.0605 33.18L5.5805 32.1599L5.7605 31.44L5.5805 31.0199L5.0405 30.8999L4.4405 30.06L4.6205 29.1599L4.3205 28.62L3.9005 28.1399L3.4805 27.5999L3.4805 26.88L2.8805 26.1599L2.4605 25.2599L2.6405 24.42L3.6005 23.2799L3.3005 22.1399L2.7605 21.5999L1.8605 21L1.7405 19.86L2.0405 19.44L2.6405 18.8999L2.8805 18.12L2.7605 17.5799L2.0405 16.9799L1.5005 16.3199L0.9 15.5999L0.72 14.88L0.6 14.1599L1.3205 13.2599L1.02 12.42L1.7405 11.88L1.5605 10.9799L1.3205 10.62L0.72 9.8399L0.42 8.88L0.06 8.1599L0.06 7.2599L0.18 6.7199L0 4.3199L0.42 4.9799L1.02 3L1.2 1.74L1.5605 0.5999L2.4605 0L2.8805 0.8999L3.4805 1.74L4.6205 2.1599L5.8805 2.3999L6.6005 3.5999L6.7205 4.9799L6.6005 6.3L7.2605 7.5L8.3405 8.0399L8.8205 8.88L9.7805 9.5999L10.0205 11.1599L10.3205 13.86L10.3205 14.88L10.2605 15.7799L10.9205 16.38L11.5805 17.4599L11.5805 18.42L12.1805 19.56L13.6205 20.0399L12.6005 21.7199L13.3205 23.88L14.5205 24.7199L13.7405 26.1599L14.6405 27.5999L14.1605 28.74L13.5005 30.8999L13.2005 31.86L13.2005 33.5999L13.5605 35.88L12.7205 37.44L12.9005 39.8399L12.9005 41.7599L12.3605 42.7199L11.8805 44.0399L11.2805 45.4799L10.9205 47.1599"/>
  <path id="path3101" transform="translate(9.43352, 9.43353)" fill="none" stroke="#000000" stroke-width="1.79999995000" stroke-linecap="butt" stroke-linejoin="miter" stroke-miterlimit="2.00000000000" d="M0 93.3605L95.8805 185.82L187.98 92.5805L94.2005 0L0.3 94.0805"/>
  <path id="path3253" transform="" fill="#a0892c" stroke="#51ff00" stroke-width="0.35426006000" stroke-linecap="butt" stroke-linejoin="round" d=""/>
 </g>
</svg>
